<?xml version="1.0" encoding="UTF-8"?>
<!-- Generator: Adobe Illustrator 17.1.0, SVG Export Plug-In . SVG Version: 6.00 Build 0)  -->
<!DOCTYPE svg PUBLIC "-//W3C//DTD SVG 1.1//EN" "http://www.w3.org/Graphics/SVG/1.1/DTD/svg11.dtd">
<svg version="1.1" id="Layer_1" xmlns="http://www.w3.org/2000/svg" xmlns:xlink="http://www.w3.org/1999/xlink" x="0px" y="0px" width="304.4px" height="500px" viewBox="0 0 304.4 500" enable-background="new 0 0 304.4 500" xml:space="preserve">
<g id="Layer_2_1_">
</g>
<g>
	<polygon fill="#44B449" points="22.4,324 22.4,327.5 26.5,331.1 33.4,324.9 33.4,321.1 26.5,327.3  "/>
</g>
<polygon fill="#FE7A16" points="6.5,322.3 0,329.3 13,329.3 "/>
<polygon fill="#818185" points="7.2,386.5 0.2,380 0.2,393 "/>
<polygon fill="#818185" points="54.1,473.6 47.1,467.2 47.1,480.2 "/>
<polygon fill="#818185" points="6.5,473.7 13.5,480.2 13.5,467.2 "/>
<polygon fill="#818185" points="26.8,390 33.2,383 20.2,383 "/>
<polygon fill="#B8B8B8" points="6.5,341.3 0,348.3 13,348.3 "/>
<rect x="47.2" y="367" fill="#9E9E9E" width="2" height="2"/>
<rect x="50.2" y="370" fill="#9E9E9E" width="2" height="2"/>
<rect x="56.2" y="370" fill="#9E9E9E" width="2" height="2"/>
<rect x="62.2" y="370" fill="#9E9E9E" width="2" height="2"/>
<rect x="68.2" y="370" fill="#9E9E9E" width="2" height="2"/>
<rect x="53.3" y="367" fill="#9E9E9E" width="2" height="2"/>
<rect x="59.3" y="367" fill="#9E9E9E" width="2" height="2"/>
<rect x="65.3" y="367" fill="#9E9E9E" width="2" height="2"/>
<rect x="71.4" y="367" fill="#9E9E9E" width="2" height="2"/>
<g>
	<path fill="#C5C5C5" d="M0.2,400v31h3.4c0.3-5.5,3.7-10.1,8.3-11.8V418c-1.8-1.2-3-3.3-3-5.6c0-3.7,3-6.7,6.8-6.7s6.8,3,6.8,6.7   c0,2.3-1.2,4.4-3,5.6v1.2c4.6,1.7,8,6.3,8.3,11.8h3.4v-31H0.2z"/>
	<path fill="#FFFFFF" d="M3.7,431H28c-0.3-5.5-3.7-10.1-8.3-11.8V418c1.8-1.2,3-3.3,3-5.6c0-3.7-3-6.7-6.8-6.7s-6.8,3-6.8,6.7   c0,2.3,1.2,4.4,3,5.6v1.2C7.5,420.9,4,425.5,3.7,431z"/>
</g>
<g>
	<rect x="60.3" y="340" fill="#B8B8B8" width="1.9" height="14"/>
	<rect x="63.2" y="341" fill="#CCCCCC" width="10.1" height="8"/>
</g>
<g>
	<rect x="60.3" y="320.1" fill="#D35F5F" width="1.9" height="14"/>
	<rect x="63.2" y="321.1" fill="#F89393" width="10.1" height="8"/>
</g>
<g>
	<rect x="80.3" y="320.1" fill="#FE6502" width="14" height="14"/>
	<path fill="#FFFFFF" d="M83.5,329.5c-0.8,0-1.4,0.6-1.4,1.4s0.6,1.4,1.4,1.4s1.4-0.6,1.4-1.4C84.9,330.2,84.3,329.5,83.5,329.5z    M82.1,325.5v2c1.3,0,2.5,0.5,3.4,1.4s1.4,2.1,1.4,3.4h2C89,328.5,85.9,325.5,82.1,325.5z M82.1,321.9v2c4.6,0,8.4,3.8,8.4,8.4h2   C92.5,326.6,87.8,321.9,82.1,321.9z"/>
</g>
<g>
	<polygon fill="#7A7A7A" points="22.6,347.1 21.9,350.3 25.1,349.6  "/>
	
		<rect x="24.7" y="343.3" transform="matrix(0.7071 0.7071 -0.7071 0.7071 252.2906 82.6249)" fill="#7A7A7A" width="3.5" height="5.1"/>
	<path fill="#7A7A7A" d="M29.1,341.3c-0.4,0-0.8,0.1-1.1,0.4l-0.7,0.7l2.5,2.5l0.7-0.7c0.2-0.3,0.4-0.7,0.4-1.1   C30.9,342.1,30.1,341.3,29.1,341.3z"/>
</g>
<g>
	<circle fill="#C03433" cx="107" cy="451.8" r="6.5"/>
	<path fill="#FFFFFF" d="M110.2,453.7L110.2,453.7l-1.9-1.9l1.9-1.9l0,0c0,0,0,0,0-0.1s0-0.2,0-0.2l-0.9-0.9c-0.1-0.1-0.1-0.1-0.2,0   H109l0,0l-1.9,1.9l-1.9-1.9l0,0c0,0,0,0-0.1,0s-0.2,0-0.2,0l-0.9,0.9c-0.1,0.1-0.1,0.1,0,0.2v0.1l0,0l1.9,1.9l-1.9,1.9l0,0   c0,0,0,0,0,0.1s0,0.2,0,0.2l0.9,0.9c0.1,0.1,0.1,0.1,0.2,0h0.1l0,0l1.9-1.9l1.9,1.9l0,0c0,0,0,0,0.1,0s0.2,0,0.2,0l0.9-0.9   C110.2,454,110.2,453.9,110.2,453.7C110.2,453.8,110.2,453.8,110.2,453.7z"/>
</g>
<g>
	<circle fill="#C03433" cx="47.2" cy="346.9" r="6.5"/>
	<path fill="#FFFFFF" d="M50.4,348.8L50.4,348.8l-1.9-1.9l1.9-1.9l0,0c0,0,0,0,0-0.1s0-0.2,0-0.2l-0.9-0.9c-0.1-0.1-0.1-0.1-0.2,0   h-0.1l0,0l-1.9,1.9l-1.9-1.9l0,0c0,0,0,0-0.1,0s-0.2,0-0.2,0l-0.9,0.9c-0.1,0.1-0.1,0.1,0,0.2v0.1l0,0l1.9,1.9l-1.9,1.9l0,0   c0,0,0,0,0,0.1s0,0.2,0,0.2l0.9,0.9c0.1,0.1,0.1,0.1,0.2,0h0.1l0,0l1.9-1.9l1.9,1.9l0,0c0,0,0,0,0.1,0s0.2,0,0.2,0l0.9-0.9   C50.4,349,50.4,348.9,50.4,348.8C50.4,348.9,50.4,348.8,50.4,348.8z"/>
</g>
<g>
	<circle fill="#CCCCCC" cx="47.2" cy="326.1" r="6.5"/>
	<path fill="#FFFFFF" d="M50.4,328.1L50.4,328.1l-1.9-1.9l1.9-1.9l0,0c0,0,0,0,0-0.1s0-0.2,0-0.2l-0.9-0.9c-0.1-0.1-0.1-0.1-0.2,0   h-0.1l0,0l-2,1.8l-1.9-1.9l0,0c0,0,0,0-0.1,0s-0.2,0-0.2,0l-0.9,0.9c-0.1,0.1-0.1,0.1,0,0.2v0.1l0,0l1.9,1.9l-1.9,1.9l0,0   c0,0,0,0,0,0.1s0,0.2,0,0.2l0.9,0.9c0.1,0.1,0.1,0.1,0.2,0h0.1l0,0l1.9-1.9l1.9,1.9l0,0c0,0,0,0,0.1,0s0.2,0,0.2,0l0.9-0.9   C50.4,328.3,50.4,328.2,50.4,328.1L50.4,328.1z"/>
</g>
<g>
	<circle fill="#FF982A" cx="60" cy="135" r="15"/>
	<polygon fill="#FFFFFF" points="60,125.4 62.1,132 69,132 63.4,136.6 65.6,143.4 60,139.5 54.4,143.6 56.6,136.5 51,132 57.9,132     "/>
</g>
<g>
	<g>
		<path fill="#949494" d="M20,122c7.2,0,13,5.8,13,13s-5.8,13-13,13s-13-5.8-13-13S12.8,122,20,122 M20,120c-8.3,0-15,6.7-15,15    s6.7,15,15,15s15-6.7,15-15S28.3,120,20,120L20,120z"/>
	</g>
	<polygon fill="#949494" points="20,125.4 22.1,132 29,132 23.4,136.6 25.6,143.4 20,139.5 14.4,143.6 16.6,136.5 11,132 17.9,132     "/>
</g>
<g>
	<circle fill="#229AC8" cx="60" cy="188" r="15"/>
	<polygon fill="#FFFFFF" points="68,188.4 60.6,180.3 52.9,188.3 52.7,192.3 59,185.9 59,195 62,195 62,186 68,192.3  "/>
</g>
<g>
	<g>
		<path fill="#949494" d="M20,175c7.2,0,13,5.8,13,13s-5.8,13-13,13s-13-5.8-13-13S12.8,175,20,175 M20,173c-8.3,0-15,6.7-15,15    s6.7,15,15,15s15-6.7,15-15S28.3,173,20,173L20,173z"/>
	</g>
	<polygon fill="#949494" points="28,188.4 20.6,180.3 12.9,188.3 12.7,192.3 19,185.9 19,195 22,195 22,186 28,192.3  "/>
</g>
<g>
	<circle fill="#229AC8" cx="60" cy="239" r="15"/>
	<polygon fill="#FFFFFF" points="68,238.6 60.6,246.7 52.9,238.7 52.7,234.7 59,241.1 59,232 62,232 62,241 68,234.7  "/>
</g>
<g>
	<g>
		<path fill="#949494" d="M20,226c7.2,0,13,5.8,13,13s-5.8,13-13,13s-13-5.8-13-13S12.8,226,20,226 M20,224c-8.3,0-15,6.7-15,15    s6.7,15,15,15s15-6.7,15-15S28.3,224,20,224L20,224z"/>
	</g>
	<polygon fill="#949494" points="28,238.6 20.6,246.7 12.9,238.7 12.7,234.7 19,241.1 19,232 22,232 22,241 28,234.7  "/>
</g>
<g>
	<circle fill="#15B58A" cx="60" cy="285" r="15"/>
	<polyline fill="#FFFFFF" points="59.8,292.9 68,282.4 68,276.9 58.8,288.4 51,282.8 51,286.9 59.7,292.9  "/>
</g>
<g>
	<g>
		<path fill="#949494" d="M20,272c7.2,0,13,5.8,13,13s-5.8,13-13,13s-13-5.8-13-13S12.8,272,20,272 M20,270c-8.3,0-15,6.7-15,15    s6.7,15,15,15s15-6.7,15-15S28.3,270,20,270L20,270z"/>
	</g>
	<polyline fill="#949494" points="19.8,292.9 28,282.4 28,276.9 18.8,288.4 11,282.8 11,286.9 19.7,292.9  "/>
</g>
<g>
	<path fill="#CC9966" d="M66.7,405.7c0-1.2,1-2.2,2.3-2.2s2.3,1,2.3,2.2s-1,2.2-2.3,2.2C67.7,407.9,66.7,406.9,66.7,405.7 M65,405.7   c0,2.1,4,7.3,4,7.3s4-5.2,4-7.3c0-2.1-1.8-3.7-4-3.7S65,403.7,65,405.7"/>
</g>
<g>
	<path fill="#C5C5C5" d="M86.7,405.7c0-1.2,1-2.2,2.3-2.2s2.3,1,2.3,2.2s-1,2.2-2.3,2.2C87.7,407.9,86.7,406.9,86.7,405.7 M85,405.7   c0,2.1,4,7.3,4,7.3s4-5.2,4-7.3c0-2.1-1.8-3.7-4-3.7S85,403.7,85,405.7"/>
</g>
<g>
	<path fill="#F2C500" d="M106.7,405.7c0-1.2,1-2.2,2.3-2.2s2.3,1,2.3,2.2s-1,2.2-2.3,2.2C107.7,407.9,106.7,406.9,106.7,405.7    M105,405.7c0,2.1,4,7.3,4,7.3s4-5.2,4-7.3c0-2.1-1.8-3.7-4-3.7S105,403.7,105,405.7"/>
</g>
<g>
	<g>
		<path fill="#27AAE1" d="M51.5,26.3c-0.8,1.4-1.7,2.6-2.9,3.8l0,0c-2.1,2.1-4.7,3.6-7.6,4.4c-4,1.7-8.9,3.3-13.6,4.6    c4.4,8,8.8,14.9,8.8,14.9S46.7,38,51.5,26.3 M52.5,11.1C52.5,11.2,52.6,11.2,52.5,11.1c0.8,1.9,1.2,3.9,1.2,6c0,0.1,0,0.2,0,0.2    C53.8,15.2,53.3,13.1,52.5,11.1"/>
		<path fill="#FFF200" d="M27.9,2.3C16.2,7,0,17.4,0,17.4s6.8,4.5,14.8,9c1.4-4.7,3-9.6,4.8-13.6c0.9-3,2.6-5.7,4.8-7.9    C25.4,3.9,26.6,3,27.9,2.3"/>
		<path fill="#90F198" d="M48.6,30.1c-1.5,1.5-4.3,3-7.6,4.4C43.9,33.7,46.5,32.2,48.6,30.1 M24.3,5c-2.2,2.1-3.9,4.8-4.8,7.9    c1.5-3.3,3-6.1,4.5-7.6C24.2,5.1,24.3,5,24.3,5 M52.6,11.2c0.8,1.9,1.2,3.9,1.2,5.9C53.7,15,53.3,13,52.6,11.2 M43.1,1.6    c-2.1-0.9-4.3-1.4-6.7-1.4l0,0l0,0C38.7,0.2,41,0.6,43.1,1.6"/>
		<path fill="#ED1C24" d="M23.1,30.7c-2.7-1.3-5.6-2.8-8.3-4.3c-2.6,8.8-4.3,16.8-4.3,16.8s8-1.6,16.8-4.1    C25.8,36.3,24.4,33.5,23.1,30.7"/>
		<path fill="#4868CC" d="M40.9,34.5c-1.5,0.4-3.1,0.6-4.7,0.6c-3.1,0-8-1.9-13.1-4.4c1.3,2.8,2.8,5.6,4.2,8.3    C32,37.7,36.9,36.2,40.9,34.5 M48.7,5.4L48.7,5.4L48.7,5.4 M48.8,5.4L48.8,5.4L48.8,5.4L48.8,5.4"/>
		<path fill="#F15A29" d="M19.6,12.8c-1.7,4-3.4,8.9-4.8,13.6c2.7,1.5,5.5,3,8.3,4.3c-2.4-5.2-4.2-10.1-4.2-13.2    C18.9,15.9,19.1,14.3,19.6,12.8 M27.9,2.3L27.9,2.3C26.6,3,25.4,3.9,24.3,5C25.4,3.9,26.6,3.1,27.9,2.3 M48.8,5.4L48.8,5.4    L48.8,5.4 M48.8,5.4L48.8,5.4L48.8,5.4L48.8,5.4"/>
	</g>
	<path fill="#90F197" d="M48.8,5.4c-7-7.1-18.4-7.2-25.5-0.2s-7.2,18.5-0.2,25.6S41.5,38,48.6,31C55.7,23.9,55.8,12.5,48.8,5.4z    M32.1,21.7c-2.2-2.2-2.2-5.8,0.1-8c2.2-2.2,5.8-2.2,8,0.1c2.2,2.2,2.2,5.8-0.1,8C37.9,24,34.3,24,32.1,21.7z"/>
</g>
<g enable-background="new    ">
	<path fill="#FFFFFF" d="M71.6,27.3h-7.5v-6.1h22.1v6.1h-7.6v19.1h-7V27.3z"/>
	<path fill="#FFFFFF" d="M87.5,26.9h6.8v3.9c1.1-2.7,2.9-4.4,6.2-4.2v7.2H100c-3.6,0-5.6,2.1-5.6,6.5v6.1h-6.8V26.9z"/>
	<path fill="#FFFFFF" d="M101.1,40.8L101.1,40.8c0-4.1,3.1-6.2,7.6-6.2c1.8,0,3.6,0.3,4.7,0.8v-0.3c0-2.1-1.3-3.2-3.9-3.2   c-2.1,0-3.6,0.4-5.4,1.1l-1.4-4.8c2.2-0.9,4.5-1.5,7.9-1.5c3.5,0,5.9,0.8,7.4,2.4c1.5,1.4,2.1,3.5,2.1,6.2v11.2h-6.7v-2.1   c-1.4,1.5-3.2,2.5-5.8,2.5C103.9,46.8,101.1,44.7,101.1,40.8z M113.5,39.3v-0.9c-0.7-0.3-1.7-0.5-2.7-0.5c-2,0-3.1,0.9-3.1,2.4v0.1   c0,1.3,1,2.1,2.4,2.1C112.1,42.5,113.5,41.3,113.5,39.3z"/>
	<path fill="#FFFFFF" d="M121.1,26.9h7.2l3.7,11.4l3.8-11.4h7.1l-7.8,19.6h-6.2L121.1,26.9z"/>
	<path fill="#FFFFFF" d="M143.2,36.7L143.2,36.7c0-5.8,4.1-10.3,9.8-10.3c6.7,0,9.8,4.9,9.8,10.7c0,0.4,0,0.9,0,1.4h-13   c0.5,2.1,2.1,3.2,4.2,3.2c1.7,0,2.9-0.6,4.3-2l3.8,3.1c-1.9,2.4-4.6,4-8.4,4C147.5,46.9,143.2,42.8,143.2,36.7z M156.4,35.1   c-0.3-2.2-1.5-3.5-3.4-3.5c-1.8,0-3,1.4-3.4,3.5H156.4z"/>
	<path fill="#FFFFFF" d="M165.9,20.1h6.8v26.3h-6.8V20.1z"/>
</g>
<g>
	<ellipse fill="#FFFFFF" cx="224.2" cy="182.6" rx="2.5" ry="2.6"/>
	<path fill="#FFFFFF" d="M233.1,185.4c-1.8-0.1-2.8-0.6-3.1-1.7c0.4,0,1.3-0.5,1.3-0.9l0,0v-0.2c0-1.4,1.1-2.6,2.5-2.6   c1.3,0,2.5,1.1,2.5,2.6v0.2l0,0c0.1,0.5,0.9,1,1.3,0.9c-0.3,1.1-1.3,1.6-3.1,1.7"/>
	<path fill="#FFFFFF" d="M228.3,192c0-3-0.8-6-4.1-6s-4.1,3-4.2,6H228.3z"/>
	<path fill="#FFFFFF" d="M238,192c0-3-0.8-6-4.1-6s-4.1,3-4.2,6H238z"/>
</g>
<g>
	<path fill="#FFFFFF" d="M230,264c-5.5,0-10,4.4-10,9.8c0,3.4,1.7,6.4,4.4,8.2c-0.5,1.6-1.4,2.8-3.8,2.5c2.7,0.6,5.1,0.9,7.1-1.1   c0.8,0.2,1.5,0.3,2.3,0.3c5.5,0,10-4.4,10-9.8S235.5,264,230,264z M230.6,278.8h-2v-2h2V278.8z M233.2,272.7   c-0.1,0.3-0.3,0.5-0.4,0.7c-0.2,0.2-0.4,0.4-0.6,0.5c-0.2,0.1-0.4,0.3-0.6,0.4c-0.2,0.1-0.8,0.3-0.9,0.5c-0.1,0.2-0.7,0.4-0.7,0.7   v0.5h-2v-0.6c0-0.4,0.6-0.7,0.7-1c0.1-0.3,0.5-0.5,0.7-0.7s0.5-0.3,0.7-0.5c0.2-0.1,0.4-0.3,0.6-0.4c0.2-0.1,0.3-0.3,0.4-0.4   c0.1-0.2,0.2-0.4,0.1-0.6c0-0.4-0.1-0.7-0.3-0.9c-0.2-0.2-0.5-0.3-0.9-0.3c-0.2,0-0.5,0-0.6,0.1c-0.2,0.1-0.3,0.2-0.4,0.4   c-0.1,0.2-0.2,0.7-0.3,0.9c-0.1,0.2-0.1,0-0.1,1h-2c0-1,0.1-1.3,0.3-1.7c0.2-0.4,0.4-0.9,0.7-1.2c0.3-0.3,0.6-0.6,1-0.8   c0.4-0.2,0.9-0.3,1.4-0.3c0.7,0,1.2,0.1,1.6,0.2c0.4,0.2,0.8,0.4,1.1,0.6c0.3,0.3,0.5,0.5,0.6,0.8s0.2,0.6,0.2,0.8   C233.4,272.1,233.3,272.4,233.2,272.7z"/>
</g>
<g>
	<path fill="#FFFFFF" d="M240.2,150l-3.5,0.9l-0.9,1.1l1.2,1v3.6l-5.6,7.2l3.3,2.6l8.2-10.6v-3.6L240.2,150z M240.6,154   c-0.4,0.5-1,0.5-1.5,0.2c-0.5-0.4-0.5-1-0.2-1.5c0.4-0.5,1-0.5,1.5-0.2C240.9,152.9,241,153.6,240.6,154z"/>
	<path fill="#FFFFFF" d="M234.5,152.8l-2.8-2.2l-3.5,0.9l-8.2,10.6l6.3,4.9l8.2-10.6V152.8z M230.6,154.8c-0.5-0.4-0.5-1-0.2-1.5   c0.4-0.5,1-0.5,1.5-0.2c0.5,0.4,0.5,1,0.2,1.5C231.7,155.1,231.1,155.2,230.6,154.8z"/>
</g>
<g>
	<path fill="#FFFFFF" d="M226.2,208.1L226.2,208.1c-0.5,0.9-0.8,1.9-0.8,3c0,0.7,0.3,1.7,0.8,2.8c0,0,0,0,0.1,0   c0.6,0,1.2-0.2,1.6-0.5c-0.5-0.7-0.7-1.5-0.7-2.4s0.3-1.7,0.7-2.4C227.4,208.3,226.8,208.1,226.2,208.1z"/>
	<path fill="#FFFFFF" d="M231.7,205c-0.2,0-0.5,0-0.7,0c0.7,0.5,1.3,1.1,1.8,1.8c1.9,0.5,3.3,2.2,3.3,4.2s-1.3,3.6-3.2,4.2   c-0.5,1.1-1.3,2.4-2.2,3.9c-0.3,0.5-0.6,0.9-0.9,1.4c1,1.5,1.8,2.6,1.8,2.6s6.3-8.5,6.3-11.9C238,207.7,235.2,205,231.7,205z"/>
	<path fill="#FFFFFF" d="M226.3,205c-3.5,0-6.3,2.7-6.3,6.1c0,3.4,6.3,11.9,6.3,11.9s6.3-8.5,6.3-11.9   C232.6,207.7,229.8,205,226.3,205z M226.2,215.4c-2.5,0-4.5-1.9-4.5-4.3c0-2.4,2-4.3,4.5-4.3s4.5,1.9,4.5,4.3   C230.7,213.4,228.7,215.4,226.2,215.4z"/>
</g>
<path fill="#FFFFFF" d="M230,236c4.4,0,8,3.5,8,7.8s-3.6,7.8-8,7.8c-0.6,0-1.3-0.1-1.9-0.2l-1.1-0.3l-0.4,0.4l0.1-0.5l-1.2-0.8  c-2.2-1.5-3.5-3.9-3.5-6.5C222,239.5,225.6,236,230,236 M230,234c-5.5,0-10,4.4-10,9.8c0,3.4,1.7,6.4,4.4,8.2  c-0.5,1.5-1.2,2.6-3.1,2.6c-0.2,0-0.4,0-0.7,0c1.1,0.3,2.2,0.5,3.2,0.5c1.4,0,2.8-0.4,3.9-1.6c0.8,0.2,1.5,0.3,2.3,0.3  c5.5,0,10-4.4,10-9.8C240,238.4,235.5,234,230,234L230,234z"/>
<g>
	<path fill="#FFFFFF" d="M226.3,120c-3.5,0-6.3,2.7-6.3,6c0,2.1,1.1,3.9,2.8,5c-0.3,1-0.9,1.7-2.4,1.5c1.7,0.4,3.2,0.5,4.4-0.7   c0.5,0.1,1,0.2,1.5,0.2c3.5,0,6.3-2.7,6.3-6S229.8,120,226.3,120z"/>
	<path fill="#FFFFFF" d="M233.5,126.3c0,0.3,0.1,0.5,0.1,0.8c0,3.3-2.8,6-6.3,6c-0.3,0-0.6,0-0.8-0.1c0.2,1.7,1.3,3.2,2.7,4.1   c-0.3,1-0.9,1.7-2.4,1.5c1.7,0.4,3.2,0.5,4.4-0.7c0.5,0.1,1,0.2,1.5,0.2c3.5,0,6.3-2.7,6.3-6C239,129.2,236.6,126.7,233.5,126.3z"/>
</g>
</svg>